<svg width="180" height="187" viewBox="0 0 180 187" fill="none" xmlns="http://www.w3.org/2000/svg">
<g id="Logo">
<g id="=&#226;&#128;&#162;_&#226;&#128;&#162;=">
<path d="M37.3577 89.4034V90.9257H20.5714V89.4034H37.3577ZM20.5714 97.3852V95.8629H37.3577V97.3852H20.5714Z" fill="#FF56D0"/>
<path d="M52.9605 93.9292C52.9605 92.7497 53.2485 91.6663 53.8245 90.6789C54.4005 89.6914 55.1822 88.9097 56.1696 88.3337C57.1845 87.7303 58.2816 87.4286 59.4611 87.4286C60.6405 87.4286 61.7239 87.7303 62.7114 88.3337C63.6988 88.9097 64.4805 89.6914 65.0565 90.6789C65.6325 91.6663 65.9205 92.7497 65.9205 93.9292C65.9205 95.1086 65.6325 96.192 65.0565 97.1794C64.4805 98.1669 63.6988 98.9623 62.7114 99.5657C61.7239 100.142 60.6405 100.43 59.4611 100.43C58.2816 100.43 57.1845 100.142 56.1696 99.5657C55.1822 98.9623 54.4005 98.1669 53.8245 97.1794C53.2485 96.192 52.9605 95.1086 52.9605 93.9292Z" fill="#FF56D0"/>
<path d="M78.849 106.286H100.902V109.029L90 110.571L78.849 109.029V106.286Z" fill="#FF56D0"/>
<path d="M113.871 93.9292C113.871 92.7497 114.159 91.6663 114.735 90.6789C115.311 89.6914 116.093 88.9097 117.08 88.3337C118.095 87.7303 119.192 87.4286 120.372 87.4286C121.551 87.4286 122.635 87.7303 123.622 88.3337C124.61 88.9097 125.391 89.6914 125.967 90.6789C126.543 91.6663 126.831 92.7497 126.831 93.9292C126.831 95.1086 126.543 96.192 125.967 97.1794C125.391 98.1669 124.61 98.9623 123.622 99.5657C122.635 100.142 121.551 100.43 120.372 100.43C119.192 100.43 118.095 100.142 117.08 99.5657C116.093 98.9623 115.311 98.1669 114.735 97.1794C114.159 96.192 113.871 95.1086 113.871 93.9292Z" fill="#FF56D0"/>
<path d="M159.179 89.4034V90.9257H142.393V89.4034H159.179ZM142.393 97.3852V95.8629H159.179V97.3852H142.393Z" fill="#FF56D0"/>
</g>
<path id="Vector" d="M157.5 25.0065C160.484 25.0065 163.345 26.1962 165.455 28.3139C167.565 30.4316 168.75 33.3038 168.75 36.2986V126.636C168.75 129.631 167.565 132.503 165.455 134.621C163.345 136.738 160.484 137.928 157.5 137.928H129.375C125.882 137.928 122.437 138.744 119.313 140.312C116.188 141.88 113.471 144.157 111.375 146.962L90 175.565L68.625 146.962C66.5292 144.157 63.8116 141.88 60.6873 140.312C57.5631 138.744 54.118 137.928 50.625 137.928H22.5C19.5163 137.928 16.6548 136.738 14.545 134.621C12.4353 132.503 11.25 129.631 11.25 126.636V36.2986C11.25 33.3038 12.4353 30.4316 14.545 28.3139C16.6548 26.1962 19.5163 25.0065 22.5 25.0065H25.7143H37.7143H48H90L132 25.0065H142.286L154.286 25.0065H157.5ZM22.5 13.7143C16.5326 13.7143 10.8097 16.0937 6.5901 20.3291C2.37053 24.5645 0 30.3089 0 36.2986V126.636C0 132.626 2.37053 138.37 6.5901 142.606C10.8097 146.841 16.5326 149.22 22.5 149.22H50.625C52.3715 149.22 54.094 149.628 55.6562 150.412C57.2183 151.196 58.5771 152.335 59.625 153.737L81 182.34C82.0479 183.743 83.4067 184.881 84.9688 185.665C86.531 186.449 88.2535 186.857 90 186.857C91.7465 186.857 93.469 186.449 95.0312 185.665C96.5933 184.881 97.9521 183.743 99 182.34L120.375 153.737C121.423 152.335 122.782 151.196 124.344 150.412C125.906 149.628 127.628 149.22 129.375 149.22H157.5C163.467 149.22 169.19 146.841 173.41 142.606C177.629 138.37 180 132.626 180 126.636V36.2986C180 30.3089 177.629 24.5645 173.41 20.3291C169.19 16.0937 163.467 13.7143 157.5 13.7143H156L142.286 0L130.286 13.7143L90 13.7143H49.7143L37.7143 3.26974e-06L24 13.7143H22.5Z" fill="#FF56D0"/>
</g>
</svg>
